<svg width="20" height="20" viewBox="0 0 20 20" fill="none" xmlns="http://www.w3.org/2000/svg">
<g clip-path="url(#clip0_1077_198)">
<path d="M3.00207 0C1.35758 0 0.006875 1.36047 0.006875 3.00496V6.0002C0.006875 7.64477 1.35754 9.0032 3.00211 9.0032H5.99734C7.64187 9.0032 9.0023 7.64473 9.0023 6.0002V3.00496C9.00226 1.36047 7.64184 0 5.9973 0H3.00207ZM13.9969 0C12.3524 0 11.0017 1.36047 11.0017 3.00496V6.0002C11.0017 7.64477 12.3523 9.0032 13.9969 9.0032H17.0019C18.6464 9.0032 19.9971 7.64473 19.9971 6.0002V3.00496C19.9971 1.36043 18.6464 0 17.0019 0H13.9969ZM3.00207 11.0046C1.35754 11.0046 0.00683594 12.3553 0.00683594 13.9998V16.997C0.00683594 18.6415 1.3575 20 3.00207 20H5.9973C7.64184 20 9.00226 18.6415 9.00226 16.997V13.9998C9.00226 12.3553 7.64184 11.0046 5.9973 11.0046H3.00207ZM13.9969 11.0046C12.3524 11.0046 11.0017 12.3553 11.0017 13.9998V16.997C11.0017 18.6415 12.3523 20 13.9969 20H17.0019C18.6464 20 19.9971 18.6415 19.9971 16.997V13.9998C19.9971 12.3553 18.6464 11.0046 17.0019 11.0046H13.9969Z" fill="white"/>
</g>
<defs>
<clipPath id="clip0_1077_198">
<rect width="20" height="20" fill="white" transform="translate(0.00195312)"/>
</clipPath>
</defs>
</svg>
