<svg width="17" height="21" viewBox="0 0 17 21" fill="none" xmlns="http://www.w3.org/2000/svg">
<path fill-rule="evenodd" clip-rule="evenodd" d="M13.2334 9.11143C12.8373 9.11143 12.5159 8.77547 12.5159 8.36152V6.21476C12.5159 4.119 10.8848 2.41419 8.87967 2.41419H8.86436C7.89527 2.41419 6.98741 2.80415 6.30149 3.51507C5.61079 4.22899 5.22909 5.18188 5.22526 6.19776V8.36152C5.22526 8.77547 4.90383 9.11143 4.50777 9.11143C4.11172 9.11143 3.79028 8.77547 3.79028 8.36152V6.21476C3.79602 4.77493 4.32888 3.44608 5.29031 2.45019C6.2527 1.4533 7.52314 0.876369 8.88254 0.914364C11.676 0.914364 13.9509 3.29209 13.9509 6.21476V8.36152C13.9509 8.77547 13.6294 9.11143 13.2334 9.11143Z" fill="black"/>
<path fill-rule="evenodd" clip-rule="evenodd" d="M5.21624 9.04102C3.61098 9.04102 2.3061 10.4049 2.3061 12.0827V16.3712C2.3061 18.049 3.61098 19.4128 5.21624 19.4128H12.526C14.1303 19.4128 15.4361 18.049 15.4361 16.3712V12.0827C15.4361 10.4049 14.1303 9.04102 12.526 9.04102H5.21624ZM12.5255 20.9125H5.21572C2.8193 20.9125 0.870605 18.8757 0.870605 16.371V12.0825C0.870605 9.57778 2.8193 7.54102 5.21572 7.54102H12.5255C14.9219 7.54102 16.8706 9.57778 16.8706 12.0825V16.371C16.8706 18.8757 14.9219 20.9125 12.5255 20.9125Z" fill="black"/>
<path fill-rule="evenodd" clip-rule="evenodd" d="M8.87056 16.0873C8.47451 16.0873 8.15308 15.7513 8.15308 15.3374V13.1166C8.15308 12.7027 8.47451 12.3667 8.87056 12.3667C9.26662 12.3667 9.58805 12.7027 9.58805 13.1166V15.3374C9.58805 15.7513 9.26662 16.0873 8.87056 16.0873Z" fill="black"/>
</svg>
