<svg width="21" height="17" viewBox="0 0 21 17" fill="none" xmlns="http://www.w3.org/2000/svg">
<path fill-rule="evenodd" clip-rule="evenodd" d="M10.7941 9.98197C10.1809 9.98197 9.56945 9.79781 9.05795 9.42947L4.9467 6.41614C4.65062 6.19947 4.60479 5.80531 4.8422 5.53697C5.08145 5.26947 5.51412 5.22697 5.80929 5.44281L9.91687 8.45281C10.433 8.82447 11.1599 8.82447 11.6796 8.44947L15.746 5.44447C16.0411 5.22531 16.4738 5.26697 16.714 5.53531C16.9532 5.80281 16.9083 6.19614 16.614 6.41447L12.5404 9.42447C12.0252 9.79614 11.4092 9.98197 10.7941 9.98197Z" fill="black"/>
<mask id="mask0_621_168" style="mask-type:luminance" maskUnits="userSpaceOnUse" x="0" y="0" width="21" height="17">
<path fill-rule="evenodd" clip-rule="evenodd" d="M0.915527 0.428223H20.6238V16.6782H0.915527V0.428223Z" fill="white"/>
</mask>
<g mask="url(#mask0_621_168)">
<path fill-rule="evenodd" clip-rule="evenodd" d="M6.26808 15.4277H15.2697C15.2716 15.4261 15.2789 15.4277 15.2844 15.4277C16.3303 15.4277 17.258 15.0877 17.9693 14.4419C18.7952 13.6944 19.249 12.6202 19.249 11.4177V5.69439C19.249 3.36689 17.5752 1.67773 15.2697 1.67773H6.26991C3.9645 1.67773 2.29066 3.36689 2.29066 5.69439V11.4177C2.29066 12.6202 2.74533 13.6944 3.57033 14.4419C4.28166 15.0877 5.21025 15.4277 6.25525 15.4277H6.26808ZM6.25236 16.6777C4.83794 16.6777 3.57478 16.2111 2.59944 15.3277C1.51319 14.3427 0.915527 12.9544 0.915527 11.4177V5.6944C0.915527 2.6919 3.21728 0.427734 6.26978 0.427734H15.2696C18.3221 0.427734 20.6239 2.6919 20.6239 5.6944V11.4177C20.6239 12.9544 20.0262 14.3427 18.9399 15.3277C17.9655 16.2102 16.7014 16.6777 15.2843 16.6777H15.2696H6.26978H6.25236Z" fill="black"/>
</g>
</svg>
