<svg width="20" height="20" viewBox="0 0 20 20" fill="none" xmlns="http://www.w3.org/2000/svg">
<path d="M12.6099 14.4383L14.242 12.7419L16.0166 10.8993L16.2863 10.6193H8.30664L9.25485 11.4609L10.6763 12.7222L12.6099 14.4383Z" fill="white"/>
<path d="M1.19838 15.4187H18.8055V13.4075H14.6323L12.8741 15.2338C12.8414 15.2677 12.8029 15.2945 12.7609 15.3127C12.748 15.3185 12.7341 15.3181 12.7209 15.3224C12.692 15.3309 12.6634 15.3398 12.6334 15.3406C12.6312 15.3406 12.6291 15.3421 12.6266 15.3421C12.6016 15.3421 12.5773 15.334 12.5527 15.3286C12.5391 15.3255 12.5252 15.3259 12.5116 15.3208C12.4711 15.3061 12.4333 15.2835 12.4002 15.2543L10.3198 13.4082H1.19838V15.4195V15.4187ZM1.07267 7.05666H18.9312C19.2161 7.053 19.4881 6.92802 19.6885 6.70877C19.8889 6.48951 20.0015 6.19362 20.002 5.88513C20.002 2.64011 17.5641 0 14.5677 0H5.43624C2.43981 0 0.00195312 2.64011 0.00195312 5.88513C0.00230987 6.19365 0.114883 6.4896 0.315289 6.70888C0.515695 6.92815 0.7878 7.0531 1.07267 7.05666ZM17.1802 3.92922L17.8023 3.25546C17.8355 3.21955 17.8748 3.19107 17.9182 3.17163C17.9615 3.1522 18.0079 3.1422 18.0548 3.1422C18.1017 3.1422 18.1481 3.1522 18.1915 3.17163C18.2348 3.19107 18.2742 3.21955 18.3073 3.25546C18.3405 3.29137 18.3668 3.334 18.3847 3.38092C18.4027 3.42784 18.4119 3.47813 18.4119 3.52891C18.4119 3.5797 18.4027 3.62998 18.3847 3.6769C18.3668 3.72382 18.3405 3.76645 18.3073 3.80236L17.6852 4.47612C17.6521 4.51216 17.6127 4.54076 17.5694 4.56028C17.5261 4.57979 17.4796 4.58984 17.4327 4.58984C17.3857 4.58984 17.3393 4.57979 17.2959 4.56028C17.2526 4.54076 17.2133 4.51216 17.1802 4.47612C17.147 4.44023 17.1206 4.39761 17.1027 4.35068C17.0847 4.30376 17.0755 4.25346 17.0755 4.20267C17.0755 4.15187 17.0847 4.10157 17.1027 4.05465C17.1206 4.00773 17.147 3.96511 17.1802 3.92922ZM14.588 1.74164L15.2098 1.06788C15.243 1.03197 15.2824 1.00349 15.3257 0.984064C15.3691 0.96464 15.4155 0.954651 15.4624 0.954669C15.5093 0.954687 15.5558 0.964711 15.5991 0.984169C15.6425 1.00363 15.6818 1.03214 15.715 1.06807C15.7481 1.10401 15.7744 1.14666 15.7924 1.19361C15.8103 1.24055 15.8195 1.29085 15.8195 1.34166C15.8195 1.39246 15.8103 1.44276 15.7923 1.48969C15.7743 1.53662 15.748 1.57925 15.7148 1.61516L15.093 2.28892C15.06 2.32499 15.0206 2.35362 14.9773 2.37317C14.934 2.39272 14.8875 2.4028 14.8406 2.40284C14.7937 2.40287 14.7472 2.39286 14.7038 2.37338C14.6605 2.35389 14.6211 2.32532 14.588 2.28931C14.5548 2.25339 14.5285 2.21073 14.5105 2.16377C14.4925 2.11682 14.4833 2.06649 14.4833 2.01566C14.4833 1.96484 14.4925 1.91451 14.5105 1.86755C14.5285 1.8206 14.5548 1.77794 14.588 1.74202V1.74164ZM13.2495 4.60298L13.8716 3.92922C13.9048 3.89331 13.9441 3.86483 13.9874 3.84539C14.0308 3.82596 14.0772 3.81595 14.1241 3.81595C14.171 3.81595 14.2174 3.82596 14.2607 3.84539C14.3041 3.86483 14.3434 3.89331 14.3766 3.92922C14.4098 3.96513 14.4361 4.00776 14.454 4.05468C14.4719 4.1016 14.4812 4.15188 14.4812 4.20267C14.4812 4.25345 14.4719 4.30374 14.454 4.35066C14.4361 4.39758 14.4098 4.44021 14.3766 4.47612L13.7545 5.14987C13.7214 5.18592 13.682 5.21452 13.6387 5.23403C13.5954 5.25355 13.5489 5.2636 13.502 5.2636C13.455 5.2636 13.4086 5.25355 13.3652 5.23403C13.3219 5.21452 13.2825 5.18592 13.2495 5.14987C13.2163 5.11399 13.1899 5.07136 13.172 5.02444C13.154 4.97752 13.1447 4.92722 13.1447 4.87643C13.1447 4.82563 13.154 4.77533 13.172 4.72841C13.1899 4.68149 13.2163 4.63887 13.2495 4.60298ZM9.48695 1.76484L10.1091 1.09108C10.1423 1.05518 10.1816 1.02669 10.2249 1.00726C10.2683 0.987822 10.3147 0.977819 10.3616 0.977819C10.4085 0.977819 10.4549 0.987822 10.4982 1.00726C10.5416 1.02669 10.5809 1.05518 10.6141 1.09108C10.6473 1.12699 10.6736 1.16963 10.6915 1.21654C10.7094 1.26346 10.7187 1.31375 10.7187 1.36453C10.7187 1.41532 10.7094 1.4656 10.6915 1.51252C10.6736 1.55944 10.6473 1.60207 10.6141 1.63798L9.99195 2.31174C9.95886 2.34778 9.91952 2.37638 9.87619 2.3959C9.83285 2.41542 9.78638 2.42546 9.73945 2.42546C9.69252 2.42546 9.64605 2.41542 9.60272 2.3959C9.55939 2.37638 9.52004 2.34778 9.48695 2.31174C9.45376 2.27585 9.42742 2.23323 9.40946 2.18631C9.39149 2.13938 9.38224 2.08909 9.38224 2.03829C9.38224 1.98749 9.39149 1.9372 9.40946 1.89028C9.42742 1.84335 9.45376 1.80073 9.48695 1.76484ZM2.38838 20H17.6155C18.2482 19.9993 18.8547 19.7268 19.3021 19.2424C19.7495 18.758 20.0012 18.1011 20.002 17.416V17.3672C20.0017 17.0563 19.8875 16.7581 19.6845 16.5382C19.4815 16.3183 19.2062 16.1946 18.9191 16.1942H1.08481C0.797644 16.1945 0.522326 16.3182 0.319302 16.5381C0.116278 16.758 0.00214222 17.0562 0.00195312 17.3672V17.416C0.00270943 18.1011 0.25439 18.758 0.701779 19.2424C1.14917 19.7268 1.75573 19.9993 2.38838 20ZM18.8055 7.83175H1.19838V9.84529H18.8055V7.83175ZM7.17802 10.6188H1.19838V12.6339H9.44838L7.44267 10.8536L7.17802 10.6188ZM18.8055 10.6188H17.317L17.1323 10.8107L15.377 12.6339H18.8055V10.6188Z" fill="white"/>
</svg>
